REM MD5 cbe84c2237cf415586fd6d9fa3d49ed1
FILE "Play-Pre Vol. 17 (Japan) (Disc 1).bin" BINARY
  TRACK 01 MODE2/2352
    INDEX 01 00:00:00
  TRACK 02 AUDIO
    INDEX 00 48:16:25
    INDEX 01 48:18:25
  TRACK 03 AUDIO
    INDEX 00 49:25:59
    INDEX 01 49:27:59
REM LEADOUT 53:28:27
